<?xml version="1.0" encoding="UTF-8" standalone="no"?>
<svg
   width="1000"
   height="683.56952"
   version="1.1"
   id="svg7"
   xmlns="http://www.w3.org/2000/svg"
   xmlns:svg="http://www.w3.org/2000/svg">
  <defs
     id="defs2">
    <filter
       id="a"
       x="0"
       y="0"
       width="261"
       height="261"
       filterUnits="userSpaceOnUse">
      <feOffset
         dy="2"
         id="feOffset1" />
      <feGaussianBlur
         stdDeviation="7.5"
         result="blur"
         id="feGaussianBlur1" />
      <feFlood
         flood-opacity=".102"
         id="feFlood1" />
      <feComposite
         operator="in"
         in2="blur"
         id="feComposite1" />
      <feComposite
         in="SourceGraphic"
         id="feComposite2" />
    </filter>
  </defs>
  <path
     data-name="Path 66807"
     d="m 370.74934,31.988105 a 10.617263,10.617263 0 0 0 -4.65933,10.53896 l 26.60516,172.930215 7.53714,59.38359 a 10.545481,10.545481 0 0 0 20.92782,-0.0392 l 7.2957,-59.31833 31.27753,-203.307215 A 10.623789,10.623789 0 0 0 446.77338,0.28641459 237.22111,237.22111 0 0 0 370.74282,32.001165 M 553.19399,0.28641459 A 10.623789,10.623789 0 0 0 540.24053,12.176175 l 31.27753,203.307215 7.2957,59.31833 a 10.545481,10.545481 0 0 0 20.92782,0.0392 l 7.53715,-59.38359 26.60515,-172.930215 A 10.610737,10.610737 0 0 0 629.21803,31.988105 237.16238,237.16238 0 0 0 553.18746,0.27335459 M 689.86759,121.31799 639.33281,404.32318 a 10.59116,10.59116 0 0 0 17.45617,9.75588 238.68286,238.68286 0 0 0 82.50403,-180.72839 237.32552,237.32552 0 0 0 -29.91367,-115.53697 10.558532,10.558532 0 0 0 -19.51175,3.50429 M 517.86402,251.231 510.45086,191.89309 a 10.545481,10.545481 0 0 0 -20.93435,0 l -7.41968,59.33791 -31.66255,205.78043 a 10.532429,10.532429 0 0 0 8.42464,12.01376 237.31899,237.31899 0 0 0 41.11171,3.6348 237.29942,237.29942 0 0 0 41.11172,-3.6348 10.525904,10.525904 0 0 0 8.42463,-12.01376 L 517.84444,251.231 M 310.07367,121.31799 a 10.558532,10.558532 0 0 0 -19.51174,-3.50429 237.31899,237.31899 0 0 0 -29.91367,115.53697 238.68286,238.68286 0 0 0 82.50403,180.72839 10.59116,10.59116 0 0 0 17.45616,-9.75588 L 310.07367,121.31799"
     fill="#e30000"
     id="path5"
     style="stroke-width:6.52567" />
  <path
     data-name="Path 66809"
     d="m 974.29539,644.33075 c 0,12.84252 -2.94308,16.09883 -15.23091,16.09883 h -54.54807 v -50.6914 c -0.004,-0.92413 0.74644,-1.6742 1.67057,-1.67057 h 52.85792 c 12.28131,0 15.24396,3.09969 15.24396,15.94874 z M 960.03028,584.7775 h -81.1989 v 98.78557 h 81.23152 c 28.93482,0 39.9436,-10.16046 39.9371,-37.25504 v -24.27549 c 0,-27.09457 -11.03491,-37.26157 -39.9632,-37.26157 M 841.1848,623.377 h -69.79203 v -29.5484 c 0,-5.00134 -4.0563,-9.05471 -9.05763,-9.0511 h -16.64045 v 98.8443 h 16.64045 c 5.00133,0.004 9.05763,-4.04976 9.05763,-9.0511 V 645.166 h 69.77898 v 29.4047 c 0,4.99878 4.05232,9.0511 9.0511,9.0511 h 16.64045 v -98.8443 h -16.64045 c -4.99878,0 -9.0511,4.05232 -9.0511,9.0511"
     fill="#e30000"
     id="path7"
     style="stroke-width:6.52567" />
  <path
     id="path18"
     style="fill:#0e145e;fill-opacity:1;stroke-width:6.52568"
     d="M 181.26367 584.71289 L 178.65234 584.77148 L 162.88672 584.77148 C 159.36997 584.77148 155.32032 585.50297 152.88281 589.71094 C 152.36552 590.60396 152.03769 591.60106 151.76758 592.5957 L 133.76953 658.86914 C 133.48894 659.57391 133.06478 659.85547 132.64062 659.85547 L 131.93555 659.85547 C 131.51138 659.85547 131.09378 659.57391 130.80664 658.86914 L 110.88477 594.08398 C 108.82011 587.3699 105.76557 584.77734 98.171875 584.77734 L 81.53125 584.77734 C 74.920557 584.77734 71.690408 587.34414 69.681641 594.08398 L 50.371094 658.86914 C 50.083963 659.57391 49.659499 659.85547 49.378906 659.85547 L 48.667969 659.85547 C 48.100231 659.85547 47.827167 659.57391 47.683594 658.86914 L 30.220703 597.05273 L 29.013672 592.79688 C 28.77463 591.95441 28.416423 590.8732 27.929688 589.99805 C 25.442285 585.52579 21.463465 584.77734 18.050781 584.77734 L 0 584.77734 L 1.2207031 588.5957 L 25.365234 671.00781 C 28.340934 681.31837 31.578261 683.5625 38.769531 683.5625 L 57.980469 683.5625 C 64.192885 683.5625 67.116398 681.03123 70.242188 671.00781 L 89.126953 609.4707 C 89.257463 608.76592 89.552074 608.48438 90.113281 608.48438 L 90.681641 608.48438 C 91.249364 608.48438 91.386397 608.76592 91.523438 609.4707 L 110.17969 671.00781 C 113.15538 681.03776 116.26154 683.5625 122.46094 683.5625 L 142.22656 683.5625 C 148.15839 683.5625 151.53182 681.03123 154.625 671.00781 L 179.99805 588.5957 L 181.21875 584.71875 L 181.26367 584.71289 z M 229.41016 584.71875 L 225.74805 584.75195 L 225.70898 584.75195 L 225.70898 646.29492 C 225.70898 673.38947 236.73776 683.55664 265.66602 683.55664 L 308.40234 683.55664 L 308.40234 669.34961 C 308.40234 663.49177 304.70186 659.66016 299.05273 659.66016 L 266.67188 659.66016 C 254.39059 659.66016 251.42773 656.39614 251.42773 643.7168 L 251.42773 594.30469 C 251.42773 587.93361 247.15775 584.71875 241.72461 584.71875 L 229.41016 584.71875 z M 320.48828 584.71875 L 316.82812 584.75195 L 316.78906 584.75195 L 316.78906 646.29492 C 316.78906 673.38947 327.81784 683.55664 356.74609 683.55664 L 399.48242 683.55664 L 399.48242 669.34961 C 399.48242 663.49178 395.77998 659.66016 390.13086 659.66016 L 357.75 659.66016 C 345.46872 659.66016 342.50586 656.39614 342.50586 643.7168 L 342.50586 594.30469 C 342.50586 587.9336 338.23588 584.71875 332.80273 584.71875 L 320.48828 584.71875 z M 723.87305 584.71875 L 721.26172 584.77734 L 705.49609 584.77734 C 701.9793 584.77734 697.9297 585.50883 695.49219 589.7168 C 694.97488 590.60982 694.64708 591.60692 694.37695 592.60156 L 676.37891 658.87695 C 676.09832 659.58172 675.67418 659.86133 675.25 659.86133 L 674.54492 659.86133 C 674.1208 659.86133 673.70314 659.58172 673.41602 658.87695 L 653.49414 594.08984 C 651.42948 587.37576 648.37496 584.7832 640.78125 584.7832 L 624.14062 584.7832 C 617.52992 584.7832 614.29975 587.35 612.29102 594.08984 L 592.98047 658.87695 C 592.69328 659.58172 592.26888 659.86133 591.98828 659.86133 L 591.27734 659.86133 C 590.70956 659.86133 590.43656 659.58172 590.29297 658.87695 L 572.83008 597.05859 L 571.62305 592.80469 C 571.38396 591.96221 571.02584 590.87906 570.53906 590.00391 C 568.05165 585.53165 564.07286 584.7832 560.66016 584.7832 L 542.60938 584.7832 L 543.83008 588.60156 L 567.97461 671.01367 C 570.95029 681.32423 574.18759 683.57031 581.37891 683.57031 L 600.58984 683.57031 C 606.80224 683.57031 609.72576 681.03709 612.85156 671.01367 L 631.73633 609.47656 C 631.8668 608.77179 632.1614 608.49219 632.72266 608.49219 L 633.29102 608.49219 C 633.85873 608.49219 633.99581 608.77179 634.13281 609.47656 L 652.78906 671.01367 C 655.76475 681.04362 658.8709 683.57031 665.07031 683.57031 L 684.83594 683.57031 C 690.76775 683.57031 694.14119 681.03709 697.23438 671.01367 L 722.60742 588.60156 L 723.82812 584.72461 L 723.87305 584.71875 z M 189.43945 584.75195 L 189.43945 588.39844 L 189.49219 679.84961 L 189.49219 683.48438 L 193.15234 683.53125 L 215.16992 683.53125 L 215.11133 588.43164 L 215.16992 584.75195 L 189.43945 584.75195 z M 446.58398 584.75195 C 417.65577 584.75195 406.66016 594.9191 406.66016 622.01367 L 406.66016 646.28906 C 406.66016 673.38363 417.67587 683.54297 446.61719 683.54297 L 490.65234 683.54297 C 519.58069 683.54297 530.58848 673.38363 530.58203 646.28906 L 530.58203 622.01367 C 530.58203 594.91911 519.54742 584.75195 490.61914 584.75195 L 446.58398 584.75195 z M 447.58203 608.04102 L 447.58984 608.04102 L 489.62695 608.04102 C 501.90829 608.04102 504.87109 611.1412 504.87109 623.99023 L 504.87109 644.30469 C 504.87109 657.14718 501.92195 660.4043 489.64062 660.4043 L 447.60156 660.4043 C 435.32029 660.4043 432.35742 657.14066 432.35742 644.30469 L 432.35742 623.99023 C 432.35742 611.14405 435.3141 608.04239 447.58203 608.04102 z " />
</svg>
